<svg width="1707" height="346" viewBox="0 0 1707 346" fill="none" xmlns="http://www.w3.org/2000/svg">
<g clip-path="url(#clip0)">
<path d="M100.512 69.76C51.264 69.76 21.6 95.104 21.6 138.304C21.6 180.064 50.4 194.176 72 202.528C83.808 207.136 93.888 211.456 93.888 221.536C93.888 229.312 87.552 236.224 68.544 236.224C48.672 236.224 29.952 230.176 18.72 219.232L-0.864 258.688C15.264 273.376 38.592 282.88 66.528 282.88C119.232 282.88 156.672 254.944 156.672 208.288C156.672 169.696 129.6 155.008 107.136 146.656C93.024 141.472 83.52 136.576 83.52 128.224C83.52 121.6 91.872 116.416 102.24 116.416C115.776 116.416 128.736 122.176 136.512 129.376L166.176 91.648C147.744 77.248 123.84 69.76 100.512 69.76ZM356.922 118.144L363.834 72.64H228.474L199.386 280H337.338L344.25 234.496H265.914L271.098 197.056H336.474L343.386 151.552H277.722L282.33 118.144H356.922ZM509.652 280H571.86L536.724 103.456C532.404 81.28 520.02 69.76 499.284 69.76C490.644 69.76 479.7 71.488 468.756 76.96L371.988 280H428.436L443.988 241.408H503.316L509.652 280ZM462.132 195.904L487.476 129.376L496.116 195.904H462.132Z" fill="black"/>
<path d="M1086.96 118.144L1094.16 72.64H965.424L936.336 280H996.528L1006.61 208.864H1060.75L1067.66 163.648H1012.94L1019.28 118.144H1086.96ZM1182.66 232.768L1201.96 97.696C1202.25 95.392 1202.25 94.816 1202.25 93.088C1202.25 78.4 1193.32 69.76 1176.9 69.76C1165.67 69.76 1156.17 73.504 1146.09 78.688L1116.71 280H1250.63L1257.54 232.768H1182.66ZM1418.28 280H1480.49L1445.35 103.456C1441.03 81.28 1428.65 69.76 1407.91 69.76C1399.27 69.76 1388.33 71.488 1377.38 76.96L1280.61 280H1337.06L1352.61 241.408H1411.94L1418.28 280ZM1370.76 195.904L1396.1 129.376L1404.74 195.904H1370.76ZM1687.71 247.456L1700.09 155.872H1617.15L1610.81 201.376H1633.57C1627.52 229.024 1616.57 236.224 1602.75 236.224C1590.37 236.224 1582.01 226.72 1582.01 197.632C1582.01 168.256 1592.96 116.416 1617.73 116.416C1627.81 116.416 1632.7 123.328 1637.02 136.288L1694.33 117.856C1680.8 80.416 1651.71 69.76 1623.49 69.76C1557.25 69.76 1520.09 130.24 1520.09 201.664C1520.09 249.472 1539.97 282.88 1581.44 282.88C1598.14 282.88 1614.27 276.544 1628.67 253.216C1628.38 256.096 1628.38 256.672 1628.38 258.688C1628.38 275.104 1636.73 282.88 1652.86 282.88C1664.38 282.88 1676.77 279.136 1689.73 273.088C1687.71 269.344 1686.85 263.296 1686.85 257.824C1686.85 254.368 1687.42 249.76 1687.71 247.456Z" fill="black"/>
<line x1="642" y1="281" x2="642" y2="65" stroke="black" stroke-width="50"/>
<path d="M792 128L873 65H693V189H873L792 128Z" fill="#FA605A"/>
</g>
<defs>
<clipPath id="clip0">
<rect width="1707" height="346" fill="white"/>
</clipPath>
</defs>
</svg>
